<svg width="507" height="507" viewBox="0 0 507 507" fill="none" xmlns="http://www.w3.org/2000/svg">
<path fill-rule="evenodd" clip-rule="evenodd" d="M47.4007 348.747L51.5361 346.597L60.1744 363.213L33.9577 376.842L31.635 372.374L53.7159 360.895L47.4007 348.747Z" fill="#1500F7"/>
<path fill-rule="evenodd" clip-rule="evenodd" d="M45.0989 331.323L46.7925 336.373L15.1393 334.916L13.4323 329.826L37.7953 309.542L39.5416 314.751L34.8109 318.575L39.0183 331.123L45.0989 331.323ZM20.2111 330.406L20.2377 330.485L34.1488 331L30.9999 321.609L20.2111 330.406Z" fill="#1500F7"/>
<path fill-rule="evenodd" clip-rule="evenodd" d="M26.579 261.987C26.4671 259.492 25.7574 257.448 24.4499 255.855C23.1424 254.261 21.3007 253.295 18.9248 252.958L19.2572 260.358L14.6845 260.563L14.1107 247.8C14.553 247.752 14.9958 247.718 15.4394 247.698C19.9572 247.496 23.6994 248.73 26.6659 251.401C29.6328 254.074 31.2118 257.543 31.4037 261.812C31.5956 266.08 30.3334 269.671 27.6174 272.584C24.9021 275.497 21.2849 277.055 16.7675 277.258C12.2771 277.46 8.5339 276.197 5.53686 273.471C2.53981 270.746 0.944358 267.221 0.750114 262.897C0.58716 259.267 1.42334 256.091 3.25897 253.37C5.0946 250.649 7.66072 248.881 10.9569 248.067L11.2014 253.513C9.3401 254.124 7.91257 255.264 6.91846 256.934C5.92435 258.603 5.47562 260.519 5.57291 262.68C5.70457 265.618 6.76696 267.931 8.75877 269.619C10.7509 271.307 13.3408 272.08 16.5283 271.937C19.6599 271.796 22.1493 270.795 23.9959 268.934C25.8426 267.074 26.7035 264.759 26.579 261.987Z" fill="#1500F7"/>
<path fill-rule="evenodd" clip-rule="evenodd" d="M29.7082 209.668L34.3235 210.321L31.4145 230.883L2.15821 226.744L5.06691 206.183L9.68218 206.835L7.47855 222.411L14.9781 223.472L17.0823 208.597L21.6975 209.25L19.5934 224.125L27.5049 225.244L29.7082 209.668Z" fill="#1500F7"/>
<path fill-rule="evenodd" clip-rule="evenodd" d="M37.1339 183.965C37.7439 182.034 37.8786 180.433 37.5383 179.161C37.1978 177.89 36.3926 177.054 35.1227 176.653C34.1967 176.361 33.3508 176.414 32.5851 176.812C31.8193 177.21 31.1446 177.826 30.5611 178.66C29.9775 179.494 29.398 180.431 28.8222 181.471C28.2464 182.511 27.6154 183.542 26.9296 184.562C26.2438 185.581 25.4903 186.471 24.6686 187.23C23.8471 187.988 22.8152 188.492 21.5731 188.74C20.331 188.987 18.9428 188.869 17.4083 188.384C15.0803 187.649 13.3995 186.107 12.3665 183.759C11.3335 181.41 11.2974 178.715 12.2584 175.672C13.2694 172.471 14.9231 170.252 17.2201 169.013C19.5171 167.774 22.0495 167.563 24.8175 168.38L23.3262 173.102C21.8627 172.669 20.5111 172.78 19.2712 173.436C18.0309 174.092 17.1352 175.293 16.5838 177.039C16.0574 178.705 15.983 180.115 16.3612 181.267C16.7391 182.42 17.5498 183.192 18.7933 183.585C19.6136 183.843 20.3866 183.768 21.1127 183.357C21.839 182.946 22.4892 182.315 23.0636 181.464C23.6381 180.612 24.2154 179.66 24.7952 178.607C25.3752 177.553 26.0213 176.521 26.7338 175.509C27.446 174.498 28.2348 173.612 29.1004 172.852C29.9658 172.093 31.0262 171.591 32.2813 171.348C33.5368 171.104 34.9315 171.225 36.466 171.709C39.0321 172.52 40.7608 174.186 41.6518 176.708C42.5429 179.229 42.4537 182.184 41.3844 185.57C40.2895 189.036 38.5538 191.353 36.1768 192.523C33.8001 193.692 31.3028 193.907 28.685 193.168L30.1888 188.406C31.7833 188.793 33.193 188.613 34.4183 187.865C35.6438 187.117 36.5492 185.817 37.1339 183.965Z" fill="#1500F7"/>
<path fill-rule="evenodd" clip-rule="evenodd" d="M33.001 128.911L37.2712 131.072L33.3997 138.721L55.4931 149.903L53.2195 154.395L31.1261 143.214L27.2549 150.863L22.9844 148.702L33.001 128.911Z" fill="#1500F7"/>
<path fill-rule="evenodd" clip-rule="evenodd" d="M45.6544 109.173L70.0914 125.783L67.2609 129.947L42.8236 113.338L45.6544 109.173Z" fill="#1500F7"/>
<path fill-rule="evenodd" clip-rule="evenodd" d="M68.5671 91.2673C68.722 93.9514 69.9572 96.3708 72.2726 98.5254C74.5877 100.68 77.0894 101.739 79.7775 101.702C82.4655 101.664 84.8019 100.579 86.7865 98.447C88.7714 96.3144 89.6863 93.9063 89.531 91.2225C89.3758 88.5387 88.1407 86.1194 85.8256 83.9643C83.5105 81.8094 81.0088 80.7508 78.3207 80.7883C75.6326 80.8258 73.2963 81.9106 71.3114 84.0431C69.3268 86.1754 68.4119 88.5835 68.5671 91.2673ZM79.6361 106.801C75.5366 106.889 71.8722 105.43 68.6432 102.425C65.4142 99.4191 63.7017 95.8736 63.5063 91.7874C63.3106 87.7016 64.7344 84.0238 67.7778 80.754C70.8212 77.4842 74.3874 75.8008 78.477 75.7032C82.5666 75.6056 86.226 77.0594 89.455 80.065C92.6839 83.0707 94.3964 86.6162 94.5919 90.7024C94.7876 94.7882 93.3635 98.4664 90.3203 101.736C87.2769 105.006 83.7157 106.694 79.6361 106.801Z" fill="#1500F7"/>
<path fill-rule="evenodd" clip-rule="evenodd" d="M104.317 59.4671L116.695 76.7084L112.672 79.5966L95.4402 55.5938L99.5985 52.6086L123.664 61.5106L111.262 44.2354L115.284 41.3476L132.516 65.35L128.324 68.3595L104.317 59.4671Z" fill="#1500F7"/>
<path fill-rule="evenodd" clip-rule="evenodd" d="M183.657 36.6584L185.233 41.0447L167.609 47.3769L157.618 19.5701L162.357 17.8673L170.772 41.2881L183.657 36.6584Z" fill="#1500F7"/>
<path fill-rule="evenodd" clip-rule="evenodd" d="M200.475 13.9805C198.996 16.2252 198.541 18.9034 199.111 22.0148C199.681 25.1258 201.055 27.4693 203.233 29.0444C205.411 30.6202 207.933 31.1455 210.798 30.6208C213.664 30.0963 215.836 28.7114 217.315 26.4663C218.794 24.2209 219.248 21.5426 218.678 18.4316C218.109 15.3206 216.735 12.9775 214.556 11.4017C212.378 9.82619 209.856 9.30086 206.991 9.82569C204.125 10.3504 201.953 11.7354 200.475 13.9805ZM200.074 33.0499C196.734 30.6719 194.666 27.3133 193.871 22.9741C193.077 18.6352 193.821 14.7685 196.105 11.3746C198.389 7.98074 201.727 5.88164 206.121 5.07726C210.515 4.27219 214.381 5.05223 217.719 7.41666C221.057 9.7811 223.123 13.1331 223.918 17.472C224.713 21.8116 223.968 25.6779 221.684 29.0718C219.401 32.4656 216.062 34.5651 211.668 35.3695C207.274 36.1739 203.41 35.4008 200.074 33.0499Z" fill="#1500F7"/>
<path fill-rule="evenodd" clip-rule="evenodd" d="M241.382 16.0725C241.457 11.5511 242.899 7.88443 245.707 5.07345C248.514 2.26209 252.082 0.892458 256.41 0.964549C260.099 1.02606 263.217 2.10466 265.762 4.20041C268.308 6.29616 269.857 9.09688 270.409 12.6026L265.041 12.5131C264.576 10.4518 263.57 8.82573 262.021 7.63452C260.473 6.44331 258.576 5.82906 256.329 5.79149C253.388 5.74251 251.063 6.65413 249.353 8.52633C247.643 10.3985 246.761 12.9435 246.708 16.1614C246.654 19.3795 247.451 21.9593 249.097 23.9013C250.744 25.8436 253.037 26.839 255.977 26.8879C258.225 26.9255 260.141 26.3746 261.728 25.2358C263.315 24.0967 264.375 22.505 264.908 20.4606L270.276 20.5501C269.608 24.035 267.966 26.7825 265.352 28.7924C262.738 30.802 259.587 31.7763 255.897 31.7149C251.569 31.6428 248.05 30.155 245.337 27.252C242.624 24.3482 241.306 20.6221 241.382 16.0725Z" fill="#1500F7"/>
<path fill-rule="evenodd" clip-rule="evenodd" d="M286.972 33.6851L281.749 32.6434L298.75 5.90373L304.015 6.95342L309.501 38.1767L304.114 37.1024L303.148 31.0966L290.169 28.5085L286.972 33.6851ZM300.141 12.5466L300.06 12.5301L292.697 24.3449L302.41 26.2815L300.141 12.5466Z" fill="#1500F7"/>
<path fill-rule="evenodd" clip-rule="evenodd" d="M348.354 20.3969L346.724 24.897L338.663 21.979L330.235 45.2621L325.5 43.5482L333.928 20.2652L325.867 17.3469L327.497 12.8468L348.354 20.3969Z" fill="#1500F7"/>
<path fill-rule="evenodd" clip-rule="evenodd" d="M369.459 30.5325L355.963 56.8182L351.483 54.5183L364.979 28.2326L369.459 30.5325Z" fill="#1500F7"/>
<path fill-rule="evenodd" clip-rule="evenodd" d="M404.306 52.51L408.835 55.6932L382.464 73.265L378.176 70.2461L385.864 39.5233L390.526 42.805L384.188 66.335L384.256 66.3831L404.306 52.51Z" fill="#1500F7"/>
<path fill-rule="evenodd" clip-rule="evenodd" d="M420.796 100.907L417.5 104.203L402.818 89.5169L423.713 68.6254L438.396 83.3104L435.1 86.6068L423.977 75.4825L418.621 80.8374L429.243 91.4618L425.947 94.7571L415.325 84.133L409.674 89.7824L420.796 100.907Z" fill="#1500F7"/>
<path fill-rule="evenodd" clip-rule="evenodd" d="M441.155 135.337L438.491 130.724L469.801 125.856L472.486 130.505L452.644 155.229L449.897 150.472L453.772 145.783L447.153 134.323L441.155 135.337ZM465.727 131.284L465.685 131.212L451.95 133.475L456.904 142.051L465.727 131.284Z" fill="#1500F7"/>
<path fill-rule="evenodd" clip-rule="evenodd" d="M475.48 167.515L477.939 174.326C478.486 175.839 479.245 176.84 480.219 177.33C481.192 177.819 482.304 177.838 483.557 177.386C484.81 176.933 485.665 176.197 486.122 175.176C486.58 174.156 486.54 172.902 486.003 171.415L483.544 164.603L475.48 167.515ZM471.096 169.098L460.136 173.054L458.426 168.318L486.218 158.284L490.373 169.792C491.513 172.95 491.582 175.572 490.58 177.66C489.579 179.747 487.812 181.247 485.281 182.161C482.776 183.066 480.471 183.013 478.366 182.003C476.261 180.993 474.653 178.949 473.541 175.869L471.096 169.098Z" fill="#1500F7"/>
<path fill-rule="evenodd" clip-rule="evenodd" d="M469.669 203.287L468.65 198.058L499.841 203.644L500.867 208.914L474.06 225.836L473.01 220.444L478.2 217.271L475.671 204.281L469.669 203.287ZM494.223 207.452L494.207 207.37L480.482 205.039L482.376 214.761L494.223 207.452Z" fill="#1500F7"/>
<path fill-rule="evenodd" clip-rule="evenodd" d="M504.796 243.544L475.292 245.145L475.019 240.116L504.524 238.515L504.796 243.544Z" fill="#1500F7"/>
<path fill-rule="evenodd" clip-rule="evenodd" d="M478.72 272.781C478.558 274.8 478.785 276.391 479.402 277.554C480.019 278.716 480.991 279.351 482.318 279.457C483.286 279.535 484.099 279.293 484.756 278.734C485.413 278.174 485.933 277.423 486.314 276.479C486.696 275.535 487.051 274.492 487.379 273.349C487.707 272.207 488.091 271.061 488.531 269.914C488.971 268.766 489.506 267.731 490.137 266.807C490.767 265.883 491.66 265.161 492.815 264.642C493.97 264.122 495.35 263.926 496.954 264.055C499.387 264.25 501.371 265.376 502.904 267.433C504.437 269.49 505.076 272.109 504.821 275.289C504.553 278.636 503.438 281.17 501.478 282.892C499.517 284.613 497.096 285.386 494.215 285.211L494.611 280.275C496.134 280.369 497.426 279.958 498.488 279.041C499.549 278.124 500.153 276.752 500.3 274.927C500.439 273.185 500.196 271.795 499.569 270.756C498.943 269.718 497.979 269.147 496.679 269.043C495.822 268.974 495.085 269.221 494.47 269.784C493.854 270.347 493.362 271.108 492.993 272.067C492.624 273.025 492.275 274.083 491.945 275.239C491.616 276.396 491.218 277.547 490.75 278.692C490.282 279.838 489.712 280.877 489.039 281.812C488.366 282.746 487.445 283.472 486.276 283.991C485.107 284.51 483.721 284.705 482.117 284.576C479.434 284.361 477.376 283.125 475.943 280.867C474.509 278.609 473.934 275.71 474.218 272.17C474.508 268.547 475.68 265.899 477.735 264.227C479.789 262.555 482.175 261.785 484.892 261.92L484.493 266.898C482.853 266.878 481.519 267.369 480.493 268.373C479.466 269.376 478.875 270.845 478.72 272.781Z" fill="#1500F7"/>
<path fill-rule="evenodd" clip-rule="evenodd" d="M470.433 321.236L465.918 320.074L471.093 299.963L499.709 307.325L494.535 327.437L490.02 326.276L493.94 311.04L486.605 309.153L482.861 323.703L478.347 322.542L482.091 307.992L474.352 306.001L470.433 321.236ZM506.385 319.958L505.11 324.915L499.037 319.958L500.146 315.646L506.385 319.958Z" fill="#1500F7"/>
<path fill-rule="evenodd" clip-rule="evenodd" d="M456.199 356.553L451.947 354.645L460.451 335.699L487.407 347.798L478.904 366.744L474.652 364.835L481.093 350.484L474.183 347.382L468.031 361.088L463.778 359.18L469.931 345.473L462.641 342.201L456.199 356.553Z" fill="#1500F7"/>
<path fill-rule="evenodd" clip-rule="evenodd" d="M434.808 404.147L431.173 401.297L439.339 390.883L442.974 393.733L434.808 404.147Z" fill="#1500F7"/>
<path fill-rule="evenodd" clip-rule="evenodd" d="M107.474 453.503C109.521 454.934 111.574 455.616 113.634 455.55C115.695 455.483 117.582 454.611 119.297 452.933L113.226 448.689L115.848 444.937L126.32 452.256C126.089 452.636 125.846 453.008 125.591 453.372C123 457.078 119.742 459.294 115.816 460.019C111.89 460.745 108.176 459.884 104.674 457.436C101.172 454.988 99.0935 451.8 98.4372 447.872C97.781 443.943 98.7484 440.126 101.34 436.419C103.915 432.736 107.196 430.536 111.183 429.821C115.17 429.104 118.939 429.983 122.486 432.463C125.464 434.547 127.474 437.142 128.513 440.257C129.553 443.371 129.392 446.483 128.03 449.593L123.562 446.469C124.21 444.621 124.176 442.794 123.457 440.989C122.739 439.183 121.493 437.661 119.719 436.421C117.309 434.736 114.828 434.17 112.276 434.721C109.723 435.273 107.533 436.856 105.706 439.471C103.909 442.041 103.186 444.625 103.537 447.223C103.888 449.82 105.2 451.914 107.474 453.503Z" fill="#1500F7"/>
<path fill-rule="evenodd" clip-rule="evenodd" d="M153.405 485.013L158.294 487.128L159.522 455.465L154.595 453.333L132.321 475.891L137.363 478.073L141.575 473.683L153.721 478.937L153.405 485.013ZM154.599 460.137L154.676 460.17L154.011 474.075L144.92 470.142L154.599 460.137Z" fill="#1500F7"/>
<path fill-rule="evenodd" clip-rule="evenodd" d="M199.684 500.015L193.943 498.613L190.886 485.871L184.296 484.261L181.531 495.582L176.639 494.387L183.649 465.683L196.263 468.763C199.336 469.514 201.486 470.881 202.715 472.866C203.944 474.852 204.239 477.151 203.601 479.766C203.12 481.733 202.235 483.309 200.946 484.494C199.658 485.678 198.011 486.34 196.007 486.479L199.684 500.015ZM196.796 481.317C197.735 480.746 198.359 479.828 198.668 478.561C198.978 477.294 198.847 476.192 198.277 475.252C197.706 474.313 196.68 473.663 195.198 473.301L187.435 471.406L185.402 479.734L193.164 481.629C194.646 481.991 195.857 481.887 196.796 481.317Z" fill="#1500F7"/>
<path fill-rule="evenodd" clip-rule="evenodd" d="M221.921 504.054L216.576 503.652L230.636 474.915L236.022 475.32L244.969 505.791L239.457 505.375L237.825 499.503L224.547 498.503L221.921 504.054ZM232.764 481.37L232.68 481.364L226.617 494.043L236.554 494.791L232.764 481.37Z" fill="#1500F7"/>
<path fill-rule="evenodd" clip-rule="evenodd" d="M268.075 484.628L270.617 505.7L265.7 506.293L262.162 476.958L267.244 476.345L284.045 495.738L281.498 474.626L286.415 474.032L289.953 503.368L284.83 503.986L268.075 484.628Z" fill="#1500F7"/>
<path fill-rule="evenodd" clip-rule="evenodd" d="M303.966 470.323L305.284 474.924L313.526 472.562L320.347 496.366L325.187 494.979L318.366 471.175L326.608 468.813L325.289 464.212L303.966 470.323Z" fill="#1500F7"/>
<path fill-rule="evenodd" clip-rule="evenodd" d="M363.233 447.337L360.282 462.433L346.474 455.599L342.33 457.642L355.395 484.144L359.837 481.954L350.287 462.581L363.428 469.002L363.577 468.928L366.45 454.613L376 473.986L380.442 471.796L367.377 445.294L363.233 447.337Z" fill="#1500F7"/>
<path fill-rule="evenodd" clip-rule="evenodd" d="M402.739 425.795L399.772 422.2L383.757 435.421L402.568 458.208L418.583 444.987L415.615 441.392L403.484 451.407L398.662 445.566L410.248 436.002L407.281 432.407L395.695 441.972L390.608 435.81L402.739 425.795Z" fill="#1500F7"/>
<path fill-rule="evenodd" clip-rule="evenodd" d="M72.4578 403.465L75.9168 400.404L84.688 410.314L81.229 413.375L72.4578 403.465Z" fill="#1500F7"/>
<path fill-rule="evenodd" clip-rule="evenodd" d="M307.542 300.972C299.921 321.179 279.984 339.545 252.49 339.545C201.803 339.545 163.238 306.09 163.238 252.979C163.238 202.367 199.67 163.381 253.889 163.381C300.776 163.381 330.897 200.402 330.897 200.402L331.791 201.501L330.698 202.404C330.698 202.404 311.372 218.365 310.236 219.201L309.095 220.042L308.246 218.906C291.267 196.198 268.689 190.279 252.724 190.279C218.833 190.279 192.002 219.089 192.002 252.979C192.002 283.968 216.067 312.947 252.679 312.947C282.37 312.947 300.987 286.135 303.728 268.786H258.411V239.378L260.013 239.574C284.395 242.558 309.705 242.723 334.088 239.446L334.64 239.372L336.723 240.827L336.601 241.694C331.796 275.98 332.85 310.218 338.481 333.537L338.907 335.301H307.542V300.972Z" fill="#1500F7"/>
<path fill-rule="evenodd" clip-rule="evenodd" d="M253.864 77.2368C157.706 77.2368 79.6387 155.305 79.6387 251.462C79.6387 347.619 157.706 425.687 253.864 425.687C350.021 425.687 428.089 347.619 428.089 251.462C428.089 155.305 350.021 77.2368 253.864 77.2368ZM253.864 106.09C334.096 106.09 399.235 171.229 399.235 251.462C399.235 331.694 334.096 396.833 253.864 396.833C173.631 396.833 108.492 331.694 108.492 251.462C108.492 171.229 173.631 106.09 253.864 106.09Z" fill="#1500F7"/>
</svg>
